<svg width="0" height="0" style="position:absolute" aria-hidden="true" xmlns="http://www.w3.org/2000/svg"><defs>
<path id="sqp" d="M 1024 512 L 1023.93 631.24 L 1023.37 696.98 L 1022.24 738.75 L 1020.55 771.13 L 1018.29 798.12 L 1015.46 821.46 L 1012.04 842.12 L 1008.04 860.66 L 1003.43 877.48 L 998.22 892.83 L 992.37 906.92 L 985.88 919.87 L 978.72 931.81 L 970.87 942.81 L 962.29 952.96 L 952.96 962.29 L 942.81 970.87 L 931.81 978.72 L 919.87 985.88 L 906.92 992.37 L 892.83 998.22 L 877.48 1003.43 L 860.66 1008.04 L 842.12 1012.04 L 821.46 1015.46 L 798.12 1018.29 L 771.13 1020.55 L 738.75 1022.24 L 696.98 1023.37 L 631.24 1023.93 L 512 1024 L 392.76 1023.93 L 327.02 1023.37 L 285.25 1022.24 L 252.87 1020.55 L 225.88 1018.29 L 202.54 1015.46 L 181.88 1012.04 L 163.34 1008.04 L 146.52 1003.43 L 131.17 998.22 L 117.08 992.37 L 104.13 985.88 L 92.19 978.72 L 81.19 970.87 L 71.04 962.29 L 61.71 952.96 L 53.13 942.81 L 45.28 931.81 L 38.12 919.87 L 31.63 906.92 L 25.78 892.83 L 20.57 877.48 L 15.96 860.66 L 11.96 842.12 L 8.54 821.46 L 5.71 798.12 L 3.45 771.13 L 1.76 738.75 L 0.63 696.98 L 0.07 631.24 L 0 512 L 0.07 392.76 L 0.63 327.02 L 1.76 285.25 L 3.45 252.87 L 5.71 225.88 L 8.54 202.54 L 11.96 181.88 L 15.96 163.34 L 20.57 146.52 L 25.78 131.17 L 31.63 117.08 L 38.12 104.13 L 45.28 92.19 L 53.13 81.19 L 61.71 71.04 L 71.04 61.71 L 81.19 53.13 L 92.19 45.28 L 104.13 38.12 L 117.08 31.63 L 131.17 25.78 L 146.52 20.57 L 163.34 15.96 L 181.88 11.96 L 202.54 8.54 L 225.88 5.71 L 252.87 3.45 L 285.25 1.76 L 327.02 0.63 L 392.76 0.07 L 512 0 L 631.24 0.07 L 696.98 0.63 L 738.75 1.76 L 771.13 3.45 L 798.12 5.71 L 821.46 8.54 L 842.12 11.96 L 860.66 15.96 L 877.48 20.57 L 892.83 25.78 L 906.92 31.63 L 919.87 38.12 L 931.81 45.28 L 942.81 53.13 L 952.96 61.71 L 962.29 71.04 L 970.87 81.19 L 978.72 92.19 L 985.88 104.13 L 992.37 117.08 L 998.22 131.17 L 1003.43 146.52 L 1008.04 163.34 L 1012.04 181.88 L 1015.46 202.54 L 1018.29 225.88 L 1020.55 252.87 L 1022.24 285.25 L 1023.37 327.02 L 1023.93 392.76 L 1024 512 Z"/>
<clipPath id="sq"><use href="#sqp"/></clipPath>
<linearGradient id="obsidian" x1="0" y1="0" x2="0" y2="1"><stop offset="0" stop-color="#0a0e1a"/><stop offset="1" stop-color="#05070f"/></linearGradient>
<radialGradient id="bloom" cx="0.5" cy="0.455" r="0.52"><stop offset="0" stop-color="#7c3aed" stop-opacity="0.18"/><stop offset="0.42" stop-color="#5566e6" stop-opacity="0.12"/><stop offset="0.72" stop-color="#38bdf8" stop-opacity="0.05"/><stop offset="1" stop-color="#38bdf8" stop-opacity="0"/></radialGradient>
<linearGradient id="rim" x1="0" y1="0" x2="0" y2="1"><stop offset="0" stop-color="#dbe8ff" stop-opacity="0.55"/><stop offset="0.07" stop-color="#dbe8ff" stop-opacity="0.12"/><stop offset="0.22" stop-color="#dbe8ff" stop-opacity="0"/><stop offset="1" stop-color="#dbe8ff" stop-opacity="0"/></linearGradient>
<filter id="glow" x="-35%" y="-35%" width="170%" height="170%"><feGaussianBlur stdDeviation="20"/></filter>
<linearGradient id="gradGen" gradientUnits="userSpaceOnUse" x1="320" y1="232" x2="692" y2="792"><stop offset="0" stop-color="#a855f7"/><stop offset="0.34" stop-color="#7c3aed"/><stop offset="0.68" stop-color="#2563eb"/><stop offset="1" stop-color="#22d3ee"/></linearGradient>
<linearGradient id="gradVel" gradientUnits="userSpaceOnUse" x1="313" y1="226" x2="695" y2="798"><stop offset="0" stop-color="#a855f7"/><stop offset="0.34" stop-color="#7c3aed"/><stop offset="0.68" stop-color="#2563eb"/><stop offset="1" stop-color="#22d3ee"/></linearGradient>
<linearGradient id="gradLum" gradientUnits="userSpaceOnUse" x1="328" y1="238" x2="688" y2="786"><stop offset="0" stop-color="#a855f7"/><stop offset="0.34" stop-color="#7c3aed"/><stop offset="0.68" stop-color="#2563eb"/><stop offset="1" stop-color="#22d3ee"/></linearGradient>
<symbol id="mark-gen" viewBox="0 0 1024 1024"><g filter="url(#glow)" opacity="0.5"><path d="M 320 232 L 428 232 L 428 792 L 320 792 Z M 320 232 L 692 232 L 670 319.36 L 320 336 Z M 320 462.08 L 610.16 462.08 L 591.46 545.95 L 320 561.92 Z M 320 688 L 670 704.64 L 692 792 L 320 792 Z" fill="url(#gradGen)"/></g><path d="M 320 232 L 428 232 L 428 792 L 320 792 Z M 320 232 L 692 232 L 670 319.36 L 320 336 Z M 320 462.08 L 610.16 462.08 L 591.46 545.95 L 320 561.92 Z M 320 688 L 670 704.64 L 692 792 L 320 792 Z" fill="url(#gradGen)"/><g stroke="#daf8ff" stroke-width="5" stroke-linecap="round" fill="none" opacity="0.78"><path d="M 323 235 L 323 789" stroke-opacity="0.5"/><path d="M 326 235 L 666 235"/><path d="M 326 465.08 L 606.16 465.08"/><path d="M 326 691 L 664 707.64"/></g></symbol>
<symbol id="mark-vel" viewBox="0 0 1024 1024"><g filter="url(#glow)" opacity="0.5"><path d="M 313 226 L 417 226 L 417 798 L 313 798 Z M 313 226 L 695 226 L 655 298 L 313 326 Z M 313 466 L 603.32 466 L 569.32 532.24 L 313 558 Z M 313 698 L 655 726 L 695 798 L 313 798 Z" fill="url(#gradVel)"/></g><path d="M 313 226 L 417 226 L 417 798 L 313 798 Z M 313 226 L 695 226 L 655 298 L 313 326 Z M 313 466 L 603.32 466 L 569.32 532.24 L 313 558 Z M 313 698 L 655 726 L 695 798 L 313 798 Z" fill="url(#gradVel)"/><g stroke="#daf8ff" stroke-width="5" stroke-linecap="round" fill="none" opacity="0.78"><path d="M 316 229 L 316 795" stroke-opacity="0.5"/><path d="M 319 229 L 651 229"/><path d="M 319 469 L 599.32 469"/><path d="M 319 701 L 649 729"/></g></symbol>
<symbol id="mark-lum" viewBox="0 0 1024 1024"><g filter="url(#glow)" opacity="0.55"><path d="M 328 238 L 440 238 L 440 786 L 328 786 Z M 328 238 L 688 238 L 674 337.36 L 328 346 Z M 328 458 L 616 458 L 604.1 557.36 L 328 566 Z M 328 678 L 674 686.64 L 688 786 L 328 786 Z" fill="url(#gradLum)"/></g><path d="M 328 238 L 440 238 L 440 786 L 328 786 Z M 328 238 L 688 238 L 674 337.36 L 328 346 Z M 328 458 L 616 458 L 604.1 557.36 L 328 566 Z M 328 678 L 674 686.64 L 688 786 L 328 786 Z" fill="url(#gradLum)"/><g stroke="#daf8ff" stroke-width="5" stroke-linecap="round" fill="none" opacity="0.78"><path d="M 331 241 L 331 783" stroke-opacity="0.5"/><path d="M 334 241 L 670 241"/><path d="M 334 461 L 612 461"/><path d="M 334 681 L 668 689.64"/></g></symbol>
<symbol id="tile-gen" viewBox="0 0 1024 1024"><g clip-path="url(#sq)"><use href="#sqp" fill="url(#obsidian)"/><rect width="1024" height="1024" fill="url(#bloom)"/><use href="#sqp" fill="none" stroke="url(#rim)" stroke-width="3"/></g><use href="#mark-gen"/></symbol>
<symbol id="tile-vel" viewBox="0 0 1024 1024"><g clip-path="url(#sq)"><use href="#sqp" fill="url(#obsidian)"/><rect width="1024" height="1024" fill="url(#bloom)"/><use href="#sqp" fill="none" stroke="url(#rim)" stroke-width="3"/></g><use href="#mark-vel"/></symbol>
<symbol id="tile-lum" viewBox="0 0 1024 1024"><g clip-path="url(#sq)"><use href="#sqp" fill="url(#obsidian)"/><rect width="1024" height="1024" fill="url(#bloom)"/><use href="#sqp" fill="none" stroke="url(#rim)" stroke-width="3"/></g><use href="#mark-lum"/></symbol>
</defs></svg>